<svg xmlns="http://www.w3.org/2000/svg" viewBox="0 0 771.93 771.93"><defs><style>.cls-1,.cls-2{fill:none;stroke-miterlimit:10;stroke-width:35.09px;}.cls-1{stroke:#0d71ba;}.cls-2{stroke:#c54c8c;}</style></defs><g id="Layer_2" data-name="Layer 2"><g id="icons"><circle class="cls-1" cx="385.96" cy="385.96" r="263.16"/><path class="cls-1" d="M410.78,410.78a35.09,35.09,0,1,1,0-49.63A35.1,35.1,0,0,1,410.78,410.78Z"/><circle class="cls-1" cx="497.61" cy="274.32" r="35.09"/><path class="cls-1" d="M299.13,522.42a35.09,35.09,0,1,1,0-49.62A35.07,35.07,0,0,1,299.13,522.42Z"/><path class="cls-1" d="M472.8,522.42a35.09,35.09,0,1,1,49.62,0A35.09,35.09,0,0,1,472.8,522.42Z"/><path class="cls-1" d="M249.51,299.13a35.09,35.09,0,1,1,49.62,0A35.07,35.07,0,0,1,249.51,299.13Z"/><path class="cls-2" d="M403.51,210.53A17.55,17.55,0,1,1,386,193,17.54,17.54,0,0,1,403.51,210.53Z"/><circle class="cls-2" cx="385.96" cy="559.64" r="17.54" transform="translate(-247.38 806.7) rotate(-76.72)"/><circle class="cls-2" cx="559.64" cy="385.96" r="17.54" transform="translate(-109 508.77) rotate(-45)"/><circle class="cls-2" cx="212.29" cy="385.96" r="17.54"/><line class="cls-1" x1="628.56" y1="283.99" x2="677.08" y2="263.6"/><line class="cls-1" x1="663.49" y1="231.25" x2="690.68" y2="295.94"/><line class="cls-1" x1="143.37" y1="487.94" x2="94.85" y2="508.33"/><line class="cls-1" x1="108.44" y1="540.68" x2="81.25" y2="475.98"/><line class="cls-1" x1="487.94" y1="628.56" x2="508.33" y2="677.08"/><line class="cls-1" x1="540.68" y1="663.49" x2="475.99" y2="690.68"/><line class="cls-1" x1="283.99" y1="143.37" x2="263.6" y2="94.85"/><line class="cls-1" x1="231.25" y1="108.44" x2="295.94" y2="81.25"/><line class="cls-1" x1="629.61" y1="485.4" x2="678.34" y2="505.29"/><line class="cls-1" x1="691.6" y1="472.8" x2="665.08" y2="537.78"/><line class="cls-1" x1="142.32" y1="286.53" x2="93.59" y2="266.64"/><line class="cls-1" x1="80.33" y1="299.13" x2="106.85" y2="234.15"/><line class="cls-1" x1="286.53" y1="629.61" x2="266.64" y2="678.34"/><line class="cls-1" x1="299.13" y1="691.6" x2="234.15" y2="665.08"/><line class="cls-1" x1="485.4" y1="142.32" x2="505.29" y2="93.59"/><line class="cls-1" x1="472.8" y1="80.33" x2="537.78" y2="106.85"/><line class="cls-1" x1="572.05" y1="199.88" x2="646.48" y2="125.45"/><line class="cls-1" x1="609.26" y1="88.24" x2="683.69" y2="162.67"/><line class="cls-1" x1="199.88" y1="572.05" x2="125.45" y2="646.48"/><line class="cls-1" x1="162.67" y1="683.69" x2="88.24" y2="609.26"/><line class="cls-1" x1="572.05" y1="572.05" x2="646.48" y2="646.48"/><line class="cls-1" x1="683.69" y1="609.26" x2="609.26" y2="683.69"/><line class="cls-1" x1="199.88" y1="199.88" x2="125.45" y2="125.45"/><line class="cls-1" x1="88.24" y1="162.67" x2="162.67" y2="88.24"/><line class="cls-1" x1="649.12" y1="385.96" x2="754.38" y2="385.96"/><line class="cls-1" x1="754.39" y1="333.33" x2="754.39" y2="438.6"/><line class="cls-1" x1="122.81" y1="385.96" x2="17.54" y2="385.96"/><line class="cls-1" x1="17.54" y1="438.6" x2="17.54" y2="333.33"/><line class="cls-1" x1="385.96" y1="649.12" x2="385.96" y2="754.39"/><line class="cls-1" x1="438.6" y1="754.39" x2="333.33" y2="754.39"/><line class="cls-1" x1="385.96" y1="122.81" x2="385.96" y2="17.55"/><line class="cls-1" x1="333.33" y1="17.54" x2="438.6" y2="17.54"/></g></g></svg>